<svg width="75" height="15" viewBox="0 0 75 15" fill="none" xmlns="http://www.w3.org/2000/svg">
<path d="M5.296 0.172V0.492C4.93333 0.502666 4.656 0.545333 4.464 0.62C4.28267 0.684 4.16 0.812 4.096 1.004C4.032 1.18533 4 1.47333 4 1.868V9.932C4 10.2733 4.02667 10.5347 4.08 10.716C4.144 10.8867 4.256 10.9987 4.416 11.052C4.576 11.1053 4.80533 11.132 5.104 11.132H6.016C6.432 11.132 6.79467 11.0573 7.104 10.908C7.424 10.7587 7.70133 10.54 7.936 10.252C8.17067 9.964 8.36267 9.612 8.512 9.196C8.66133 8.76933 8.768 8.28933 8.832 7.756H9.2C9.168 8.108 9.152 8.56667 9.152 9.132C9.152 9.36667 9.15733 9.70267 9.168 10.14C9.18933 10.5773 9.22133 11.0307 9.264 11.5C8.72 11.4787 8.10667 11.468 7.424 11.468C6.74133 11.4573 6.13333 11.452 5.6 11.452C5.344 11.452 5.01867 11.452 4.624 11.452C4.22933 11.452 3.79733 11.4573 3.328 11.468C2.86933 11.468 2.4 11.4733 1.92 11.484C1.45067 11.484 1.00267 11.4893 0.576 11.5V11.18C0.928 11.1587 1.18933 11.116 1.36 11.052C1.54133 10.988 1.65867 10.86 1.712 10.668C1.776 10.476 1.808 10.188 1.808 9.804V1.868C1.808 1.47333 1.776 1.18533 1.712 1.004C1.65867 0.812 1.54133 0.684 1.36 0.62C1.18933 0.545333 0.928 0.502666 0.576 0.492V0.172C0.842667 0.182666 1.184 0.193333 1.6 0.204C2.016 0.214666 2.464 0.219999 2.944 0.219999C3.38133 0.219999 3.81333 0.214666 4.24 0.204C4.66667 0.193333 5.01867 0.182666 5.296 0.172ZM14.1206 3.004C14.8566 3.004 15.5073 3.15333 16.0726 3.452C16.6486 3.74 17.102 4.204 17.4326 4.844C17.774 5.484 17.9446 6.32667 17.9446 7.372C17.9446 8.41733 17.774 9.26 17.4326 9.9C17.102 10.54 16.6486 11.004 16.0726 11.292C15.5073 11.58 14.8566 11.724 14.1206 11.724C13.3846 11.724 12.7286 11.58 12.1526 11.292C11.5766 11.004 11.1233 10.54 10.7926 9.9C10.462 9.26 10.2966 8.41733 10.2966 7.372C10.2966 6.32667 10.462 5.484 10.7926 4.844C11.1233 4.204 11.5766 3.74 12.1526 3.452C12.7286 3.15333 13.3846 3.004 14.1206 3.004ZM14.1206 3.324C13.6193 3.324 13.2086 3.644 12.8886 4.284C12.5793 4.91333 12.4246 5.94267 12.4246 7.372C12.4246 8.80133 12.5793 9.83067 12.8886 10.46C13.2086 11.0893 13.6193 11.404 14.1206 11.404C14.6113 11.404 15.0166 11.0893 15.3366 10.46C15.6566 9.83067 15.8166 8.80133 15.8166 7.372C15.8166 5.94267 15.6566 4.91333 15.3366 4.284C15.0166 3.644 14.6113 3.324 14.1206 3.324ZM22.0341 14.508C21.4048 14.508 20.8341 14.4493 20.3221 14.332C19.8101 14.2147 19.4048 14.0387 19.1061 13.804C18.8075 13.58 18.6581 13.292 18.6581 12.94C18.6581 12.5987 18.8075 12.2947 19.1061 12.028C19.4048 11.7613 19.8421 11.5587 20.4181 11.42L20.5301 11.676C20.3275 11.7933 20.1728 11.9533 20.0661 12.156C19.9595 12.3587 19.9061 12.572 19.9061 12.796C19.9061 13.2547 20.1141 13.6067 20.5301 13.852C20.9568 14.108 21.5221 14.236 22.2261 14.236C22.7061 14.236 23.1488 14.172 23.5541 14.044C23.9595 13.916 24.2848 13.7187 24.5301 13.452C24.7755 13.1853 24.8981 12.8547 24.8981 12.46C24.8981 12.1293 24.7755 11.852 24.5301 11.628C24.2955 11.404 23.8208 11.292 23.1061 11.292H22.0501C21.6555 11.292 21.2928 11.2493 20.9621 11.164C20.6421 11.0787 20.3861 10.94 20.1941 10.748C20.0021 10.556 19.9061 10.2893 19.9061 9.948C19.9061 9.532 20.0768 9.15867 20.4181 8.828C20.7595 8.48667 21.2928 8.156 22.0181 7.836L22.1941 7.98C21.9275 8.11867 21.6875 8.268 21.4741 8.428C21.2715 8.588 21.1701 8.79067 21.1701 9.036C21.1701 9.37733 21.4048 9.548 21.8741 9.548H23.6821C24.2368 9.548 24.7275 9.61733 25.1541 9.756C25.5915 9.89467 25.9381 10.1133 26.1941 10.412C26.4501 10.7107 26.5781 11.1053 26.5781 11.596C26.5781 12.108 26.4128 12.5827 26.0821 13.02C25.7515 13.468 25.2501 13.8253 24.5781 14.092C23.9168 14.3693 23.0688 14.508 22.0341 14.508ZM22.1781 8.092C21.6021 8.092 21.0795 8.00667 20.6101 7.836C20.1515 7.65467 19.7888 7.37733 19.5221 7.004C19.2555 6.62 19.1221 6.13467 19.1221 5.548C19.1221 4.96133 19.2555 4.48133 19.5221 4.108C19.7888 3.73467 20.1515 3.45733 20.6101 3.276C21.0795 3.09467 21.6021 3.004 22.1781 3.004C22.7648 3.004 23.2875 3.09467 23.7461 3.276C24.2048 3.45733 24.5675 3.73467 24.8341 4.108C25.1008 4.48133 25.2341 4.96133 25.2341 5.548C25.2341 6.13467 25.1008 6.62 24.8341 7.004C24.5675 7.37733 24.2048 7.65467 23.7461 7.836C23.2875 8.00667 22.7648 8.092 22.1781 8.092ZM22.1781 7.804C22.4981 7.804 22.7488 7.644 22.9301 7.324C23.1221 6.99333 23.2181 6.40133 23.2181 5.548C23.2181 4.69467 23.1221 4.108 22.9301 3.788C22.7488 3.45733 22.4981 3.292 22.1781 3.292C21.8581 3.292 21.6021 3.45733 21.4101 3.788C21.2288 4.108 21.1381 4.69467 21.1381 5.548C21.1381 6.40133 21.2288 6.99333 21.4101 7.324C21.6021 7.644 21.8581 7.804 22.1781 7.804ZM24.5941 4.364L24.2901 4.252C24.4501 3.85733 24.7115 3.52667 25.0741 3.26C25.4368 2.98267 25.8208 2.844 26.2261 2.844C26.5355 2.844 26.7755 2.92933 26.9461 3.1C27.1275 3.27067 27.2181 3.51067 27.2181 3.82C27.2181 4.14 27.1328 4.37467 26.9621 4.524C26.7915 4.67333 26.6048 4.748 26.4021 4.748C26.2208 4.748 26.0555 4.68933 25.9061 4.572C25.7568 4.444 25.6715 4.252 25.6501 3.996C25.6288 3.72933 25.7141 3.39867 25.9061 3.004L26.0661 3.068C25.6501 3.228 25.3408 3.404 25.1381 3.596C24.9355 3.788 24.7541 4.044 24.5941 4.364ZM31.5581 3.004C32.2941 3.004 32.9448 3.15333 33.5101 3.452C34.0861 3.74 34.5395 4.204 34.8701 4.844C35.2115 5.484 35.3821 6.32667 35.3821 7.372C35.3821 8.41733 35.2115 9.26 34.8701 9.9C34.5395 10.54 34.0861 11.004 33.5101 11.292C32.9448 11.58 32.2941 11.724 31.5581 11.724C30.8221 11.724 30.1661 11.58 29.5901 11.292C29.0141 11.004 28.5608 10.54 28.2301 9.9C27.8995 9.26 27.7341 8.41733 27.7341 7.372C27.7341 6.32667 27.8995 5.484 28.2301 4.844C28.5608 4.204 29.0141 3.74 29.5901 3.452C30.1661 3.15333 30.8221 3.004 31.5581 3.004ZM31.5581 3.324C31.0568 3.324 30.6461 3.644 30.3261 4.284C30.0168 4.91333 29.8621 5.94267 29.8621 7.372C29.8621 8.80133 30.0168 9.83067 30.3261 10.46C30.6461 11.0893 31.0568 11.404 31.5581 11.404C32.0488 11.404 32.4541 11.0893 32.7741 10.46C33.0941 9.83067 33.2541 8.80133 33.2541 7.372C33.2541 5.94267 33.0941 4.91333 32.7741 4.284C32.4541 3.644 32.0488 3.324 31.5581 3.324ZM47.1718 11.5V11.18C47.5238 11.1587 47.7851 11.116 47.9558 11.052C48.1371 10.988 48.2544 10.86 48.3078 10.668C48.3718 10.476 48.4038 10.188 48.4038 9.804V1.868C48.4038 1.47333 48.3718 1.18533 48.3078 1.004C48.2544 0.812 48.1371 0.684 47.9558 0.62C47.7851 0.545333 47.5238 0.502666 47.1718 0.492V0.172C47.4598 0.182666 47.8171 0.193333 48.2438 0.204C48.6704 0.214666 49.0971 0.219999 49.5238 0.219999C49.9931 0.219999 50.4304 0.214666 50.8358 0.204C51.2518 0.193333 51.5824 0.182666 51.8278 0.172V0.492C51.4864 0.502666 51.2251 0.545333 51.0438 0.62C50.8731 0.684 50.7558 0.812 50.6918 1.004C50.6278 1.18533 50.5958 1.47333 50.5958 1.868V9.804C50.5958 10.188 50.6278 10.476 50.6918 10.668C50.7558 10.86 50.8731 10.988 51.0438 11.052C51.2251 11.116 51.4864 11.1587 51.8278 11.18V11.5C51.5824 11.4787 51.2518 11.468 50.8358 11.468C50.4304 11.4573 49.9931 11.452 49.5238 11.452C49.0971 11.452 48.6704 11.4573 48.2438 11.468C47.8171 11.468 47.4598 11.4787 47.1718 11.5ZM40.4198 11.5V11.18C40.7718 11.1587 41.0331 11.116 41.2038 11.052C41.3851 10.988 41.5024 10.86 41.5558 10.668C41.6198 10.476 41.6518 10.188 41.6518 9.804V1.868C41.6518 1.47333 41.6198 1.18533 41.5558 1.004C41.5024 0.812 41.3851 0.684 41.2038 0.62C41.0331 0.545333 40.7718 0.502666 40.4198 0.492V0.172C40.6864 0.182666 41.0278 0.193333 41.4438 0.204C41.8598 0.214666 42.3078 0.219999 42.7878 0.219999C43.2144 0.219999 43.6358 0.214666 44.0518 0.204C44.4678 0.193333 44.8091 0.182666 45.0758 0.172V0.492C44.7344 0.502666 44.4731 0.545333 44.2918 0.62C44.1211 0.684 44.0038 0.812 43.9398 1.004C43.8758 1.18533 43.8438 1.47333 43.8438 1.868V9.804C43.8438 10.188 43.8758 10.476 43.9398 10.668C44.0038 10.86 44.1211 10.988 44.2918 11.052C44.4731 11.116 44.7344 11.1587 45.0758 11.18V11.5C44.8091 11.4787 44.4678 11.468 44.0518 11.468C43.6358 11.4573 43.2144 11.452 42.7878 11.452C42.3078 11.452 41.8598 11.4573 41.4438 11.468C41.0278 11.468 40.6864 11.4787 40.4198 11.5ZM42.9638 5.964V5.644H49.2838V5.964H42.9638ZM56.573 3.004C57.5117 3.004 58.2477 3.28667 58.781 3.852C59.3143 4.41733 59.581 5.31867 59.581 6.556H54.189L54.173 6.252H57.725C57.7463 5.72933 57.7143 5.24933 57.629 4.812C57.5437 4.364 57.405 4.00667 57.213 3.74C57.0317 3.47333 56.7917 3.34 56.493 3.34C56.0877 3.34 55.7357 3.58 55.437 4.06C55.1383 4.52933 54.9517 5.30267 54.877 6.38L54.941 6.476C54.9197 6.61467 54.9037 6.764 54.893 6.924C54.893 7.084 54.893 7.244 54.893 7.404C54.893 8.14 54.9997 8.748 55.213 9.228C55.4263 9.708 55.7037 10.06 56.045 10.284C56.3863 10.508 56.7383 10.62 57.101 10.62C57.3463 10.62 57.597 10.5827 57.853 10.508C58.109 10.4333 58.3597 10.2947 58.605 10.092C58.8503 9.88933 59.0743 9.60133 59.277 9.228L59.581 9.356C59.4637 9.72933 59.2663 10.1027 58.989 10.476C58.7223 10.8387 58.3757 11.1373 57.949 11.372C57.5223 11.6067 57.021 11.724 56.445 11.724C55.7197 11.724 55.0797 11.564 54.525 11.244C53.9703 10.924 53.5383 10.4493 53.229 9.82C52.9197 9.18 52.765 8.40133 52.765 7.484C52.765 6.51333 52.925 5.69733 53.245 5.036C53.5757 4.37467 54.029 3.87333 54.605 3.532C55.181 3.18 55.837 3.004 56.573 3.004ZM65.8686 3.004C66.1993 3.004 66.4713 3.07333 66.6846 3.212C66.9086 3.35067 67.074 3.52667 67.1806 3.74C67.2873 3.95333 67.3406 4.17733 67.3406 4.412C67.3406 4.764 67.234 5.05733 67.0206 5.292C66.818 5.52667 66.546 5.644 66.2046 5.644C65.8846 5.644 65.6233 5.55867 65.4206 5.388C65.218 5.21733 65.1166 4.98267 65.1166 4.684C65.1166 4.41733 65.1806 4.19333 65.3086 4.012C65.4473 3.83067 65.602 3.68667 65.7726 3.58C65.6553 3.516 65.522 3.49467 65.3726 3.516C65.1166 3.53733 64.882 3.628 64.6686 3.788C64.4553 3.948 64.274 4.14533 64.1246 4.38C63.9753 4.61467 63.858 4.86533 63.7726 5.132C63.698 5.39867 63.6606 5.65467 63.6606 5.9V9.852C63.6606 10.3747 63.794 10.7267 64.0606 10.908C64.3273 11.0787 64.7166 11.164 65.2286 11.164V11.5C64.9833 11.4893 64.626 11.4787 64.1566 11.468C63.698 11.4467 63.218 11.436 62.7166 11.436C62.3006 11.436 61.8846 11.4467 61.4686 11.468C61.0633 11.4787 60.7593 11.4893 60.5566 11.5V11.164C60.9513 11.164 61.2286 11.084 61.3886 10.924C61.5593 10.764 61.6446 10.46 61.6446 10.012V4.972C61.6446 4.492 61.5646 4.14 61.4046 3.916C61.2553 3.68133 60.9726 3.564 60.5566 3.564V3.228C60.898 3.26 61.2286 3.276 61.5486 3.276C61.9433 3.276 62.3166 3.26 62.6686 3.228C63.0313 3.18533 63.362 3.12667 63.6606 3.052V4.716C63.7886 4.41733 63.954 4.14 64.1566 3.884C64.37 3.628 64.6206 3.42 64.9086 3.26C65.2073 3.08933 65.5273 3.004 65.8686 3.004ZM71.6824 3.004C72.621 3.004 73.357 3.28667 73.8904 3.852C74.4237 4.41733 74.6904 5.31867 74.6904 6.556H69.2984L69.2824 6.252H72.8344C72.8557 5.72933 72.8237 5.24933 72.7384 4.812C72.653 4.364 72.5144 4.00667 72.3224 3.74C72.141 3.47333 71.901 3.34 71.6024 3.34C71.197 3.34 70.845 3.58 70.5464 4.06C70.2477 4.52933 70.061 5.30267 69.9864 6.38L70.0504 6.476C70.029 6.61467 70.013 6.764 70.0024 6.924C70.0024 7.084 70.0024 7.244 70.0024 7.404C70.0024 8.14 70.109 8.748 70.3224 9.228C70.5357 9.708 70.813 10.06 71.1544 10.284C71.4957 10.508 71.8477 10.62 72.2104 10.62C72.4557 10.62 72.7064 10.5827 72.9624 10.508C73.2184 10.4333 73.469 10.2947 73.7144 10.092C73.9597 9.88933 74.1837 9.60133 74.3864 9.228L74.6904 9.356C74.573 9.72933 74.3757 10.1027 74.0984 10.476C73.8317 10.8387 73.485 11.1373 73.0584 11.372C72.6317 11.6067 72.1304 11.724 71.5544 11.724C70.829 11.724 70.189 11.564 69.6344 11.244C69.0797 10.924 68.6477 10.4493 68.3384 9.82C68.029 9.18 67.8744 8.40133 67.8744 7.484C67.8744 6.51333 68.0344 5.69733 68.3544 5.036C68.685 4.37467 69.1384 3.87333 69.7144 3.532C70.2904 3.18 70.9464 3.004 71.6824 3.004Z" fill="#1C1C1C"/>
</svg>
